<?xml version="1.0" encoding="utf-8"?>
<!-- Generator: Adobe Illustrator 23.1.0, SVG Export Plug-In . SVG Version: 6.00 Build 0)  -->
<svg version="1.1" id="Layer_1" xmlns="http://www.w3.org/2000/svg" xmlns:xlink="http://www.w3.org/1999/xlink" x="0px" y="0px"
	 viewBox="0 0 64 64" style="enable-background:new 0 0 64 64;" xml:space="preserve">
<style type="text/css">
	.st0{fill:#D1D3D4;}
	.st1{fill:#603913;}
	.st2{fill:#A7A9AC;}
	.st3{fill:#C09EC9;}
	.st4{fill:#BCBEC0;}
	.st5{fill:#FFFFFF;}
	.st6{fill:#FBB040;}
	.st7{fill:#F7941D;}
	.st8{fill:#F5ACCC;}
	.st9{fill:#D7DF23;}
	.st10{fill:#A0DAE3;}
	.st11{fill:#00AEEF;}
	.st12{fill:#92278F;}
	.st13{fill:#E6E7E8;}
	.st14{fill:#ED1C24;}
	.st15{fill:#939598;}
	.st16{fill:#C2B59B;}
	.st17{fill:#3C2415;}
	.st18{fill:#C49A6C;}
	.st19{fill:#FDCE8F;}
	.st20{fill:#262262;}
	.st21{fill:#808285;}
	.st22{fill:#231F20;}
	.st23{fill:#BE1E2D;}
	.st24{fill:#FFFAC7;}
	.st25{fill:#27AAE1;}
	.st26{fill:#F1F2F2;}
	.st27{fill:#2BB673;}
	.st28{fill:#58595B;}
	.st29{fill:#00A79D;}
</style>
<g>
	<g>
		<rect x="2" y="13.7" class="st8" width="59.9" height="40.4"/>
		<path class="st1" d="M62,55.1H2c-0.6,0-1-0.4-1-1V13.7c0-0.6,0.4-1,1-1H62c0.6,0,1,0.4,1,1v40.4C63,54.7,62.5,55.1,62,55.1z
			 M3,53.1H61V14.7H3V53.1z"/>
	</g>
	<g>
		<g>
			<rect x="5.5" y="18.4" class="st5" width="17.9" height="31.8"/>
			<path class="st1" d="M23.4,51.2H5.5c-0.6,0-1-0.4-1-1V18.4c0-0.6,0.4-1,1-1h17.9c0.6,0,1,0.4,1,1v31.8
				C24.4,50.8,24,51.2,23.4,51.2z M6.5,49.2h15.9V19.4H6.5V49.2z"/>
		</g>
		<g>
			<rect x="40.6" y="18.4" class="st5" width="17.9" height="31.8"/>
			<path class="st1" d="M58.5,51.2H40.6c-0.6,0-1-0.4-1-1V18.4c0-0.6,0.4-1,1-1h17.9c0.6,0,1,0.4,1,1v31.8
				C59.5,50.8,59.1,51.2,58.5,51.2z M41.6,49.2h15.9V19.4H41.6V49.2z"/>
		</g>
	</g>
	<g>
		<g>
			<g>
				<g>
					<path class="st9" d="M13.5,43.2c0,0.7-0.6,1.3-1.3,1.3H8.7c-0.7,0-1.3-0.6-1.3-1.3l0,0C7.5,42.5,8,42,8.7,42h3.5
						C12.9,42,13.5,42.5,13.5,43.2L13.5,43.2z"/>
					<path class="st1" d="M12.2,45.5H8.7c-1.3,0-2.3-1-2.3-2.3c0-1.3,1-2.3,2.3-2.3h3.5c1.3,0,2.3,1,2.3,2.3
						C14.5,44.5,13.5,45.5,12.2,45.5z M8.7,43c-0.2,0-0.3,0.1-0.3,0.3c0,0.1,0.1,0.3,0.3,0.3h3.5c0.1,0,0.3-0.1,0.3-0.3
						c0-0.1-0.1-0.3-0.3-0.3H8.7z"/>
				</g>
				<g>
					<path class="st1" d="M10.5,51.2c-0.6,0-1-0.4-1-1v-5.7c0-0.6,0.4-1,1-1s1,0.4,1,1v5.7C11.5,50.8,11.1,51.2,10.5,51.2z"/>
				</g>
			</g>
			<g>
				<g>
					<path class="st9" d="M21,43.2c0,0.7-0.6,1.3-1.3,1.3h-3.5c-0.7,0-1.3-0.6-1.3-1.3l0,0c0-0.7,0.6-1.3,1.3-1.3h3.5
						C20.5,42,21,42.5,21,43.2L21,43.2z"/>
					<path class="st1" d="M19.8,45.5h-3.5c-1.3,0-2.3-1-2.3-2.3c0-1.3,1-2.3,2.3-2.3h3.5c1.3,0,2.3,1,2.3,2.3
						C22,44.5,21,45.5,19.8,45.5z M16.3,43c-0.2,0-0.3,0.1-0.3,0.3c0,0.1,0.1,0.3,0.3,0.3h3.5c0.1,0,0.3-0.1,0.3-0.3
						c0-0.2-0.1-0.3-0.3-0.3H16.3z"/>
				</g>
				<g>
					<path class="st1" d="M18,51.2c-0.6,0-1-0.4-1-1v-5.7c0-0.6,0.4-1,1-1s1,0.4,1,1v5.7C19,50.8,18.6,51.2,18,51.2z"/>
				</g>
			</g>
		</g>
		<g>
			<g>
				<g>
					<path class="st9" d="M49,43.2c0,0.7-0.6,1.3-1.3,1.3h-3.5c-0.7,0-1.3-0.6-1.3-1.3l0,0c0-0.7,0.6-1.3,1.3-1.3h3.5
						C48.4,42,49,42.5,49,43.2L49,43.2z"/>
					<path class="st1" d="M47.7,45.5h-3.5c-1.3,0-2.3-1-2.3-2.3c0-1.3,1-2.3,2.3-2.3h3.5c1.3,0,2.3,1,2.3,2.3
						C50,44.5,49,45.5,47.7,45.5z M44.2,43c-0.1,0-0.3,0.1-0.3,0.3c0,0.1,0.1,0.3,0.3,0.3h3.5c0.1,0,0.3-0.1,0.3-0.3
						c0-0.2-0.1-0.3-0.3-0.3H44.2z"/>
				</g>
				<g>
					<path class="st1" d="M46,51.2c-0.6,0-1-0.4-1-1v-5.7c0-0.6,0.4-1,1-1s1,0.4,1,1v5.7C47,50.8,46.6,51.2,46,51.2z"/>
				</g>
			</g>
			<g>
				<g>
					<path class="st9" d="M56.5,43.2c0,0.7-0.6,1.3-1.3,1.3h-3.5c-0.7,0-1.3-0.6-1.3-1.3l0,0c0-0.7,0.6-1.3,1.3-1.3h3.5
						C56,42,56.5,42.5,56.5,43.2L56.5,43.2z"/>
					<path class="st1" d="M55.3,45.5h-3.5c-1.3,0-2.3-1-2.3-2.3c0-1.3,1-2.3,2.3-2.3h3.5c1.3,0,2.3,1,2.3,2.3
						C57.5,44.5,56.5,45.5,55.3,45.5z M51.8,43c-0.1,0-0.3,0.1-0.3,0.3c0,0.1,0.1,0.3,0.3,0.3h3.5c0.2,0,0.3-0.1,0.3-0.3
						c0-0.2-0.1-0.3-0.3-0.3H51.8z"/>
				</g>
				<g>
					<path class="st1" d="M53.5,51.2c-0.6,0-1-0.4-1-1v-5.7c0-0.6,0.4-1,1-1s1,0.4,1,1v5.7C54.5,50.8,54.1,51.2,53.5,51.2z"/>
				</g>
			</g>
		</g>
	</g>
	<g>
		<g>
			<g>
				<polygon class="st10" points="14.1,33.2 7.9,33.2 11,30.2 14.1,27.3 17.3,30.2 20.4,33.2 				"/>
				<path class="st1" d="M20.4,34.2H7.9c-0.4,0-0.8-0.3-0.9-0.6c-0.2-0.4-0.1-0.8,0.2-1.1l6.3-5.9c0.4-0.4,1-0.4,1.4,0l6.3,5.9
					c0.3,0.3,0.4,0.7,0.2,1.1S20.8,34.2,20.4,34.2z M10.4,32.2h7.5l-3.8-3.5L10.4,32.2z"/>
			</g>
			<g>
				<path class="st1" d="M14.1,28.3c-0.6,0-1-0.4-1-1v-6.7c0-0.6,0.4-1,1-1s1,0.4,1,1v6.7C15.1,27.9,14.7,28.3,14.1,28.3z"/>
			</g>
		</g>
		<g>
			<g>
				<polygon class="st10" points="49.9,33.2 43.6,33.2 46.7,30.2 49.9,27.3 53,30.2 56.1,33.2 				"/>
				<path class="st1" d="M56.1,34.2H43.6c-0.4,0-0.8-0.3-0.9-0.6c-0.2-0.4-0.1-0.8,0.2-1.1l6.3-5.9c0.4-0.4,1-0.4,1.4,0l6.3,5.9
					c0.3,0.3,0.4,0.7,0.2,1.1C56.9,33.9,56.6,34.2,56.1,34.2z M46.1,32.2h7.5l-3.8-3.5L46.1,32.2z"/>
			</g>
			<g>
				<path class="st1" d="M49.9,28.3c-0.6,0-1-0.4-1-1v-6.7c0-0.6,0.4-1,1-1s1,0.4,1,1v6.7C50.9,27.9,50.4,28.3,49.9,28.3z"/>
			</g>
		</g>
	</g>
	<g>
		<path class="st9" d="M2,9.9v11.6c0,1.8,1.5,3.3,3.3,3.3c1.8,0,3.3-1.5,3.3-3.3V9.9H2z"/>
		<path class="st1" d="M5.3,25.8c-2.4,0-4.3-1.9-4.3-4.3V9.9c0-0.6,0.4-1,1-1h6.6c0.6,0,1,0.4,1,1v11.6C9.6,23.9,7.7,25.8,5.3,25.8z
			 M3,10.9v10.6c0,1.3,1,2.3,2.3,2.3c1.3,0,2.3-1,2.3-2.3V10.9H3z"/>
	</g>
	<g>
		<path class="st11" d="M8.7,9.9v11.6c0,1.8,1.5,3.3,3.3,3.3c1.8,0,3.3-1.5,3.3-3.3V9.9H8.7z"/>
		<path class="st1" d="M12,25.8c-2.4,0-4.3-1.9-4.3-4.3V9.9c0-0.6,0.4-1,1-1h6.6c0.6,0,1,0.4,1,1v11.6C16.3,23.9,14.4,25.8,12,25.8z
			 M9.7,10.9v10.6c0,1.3,1,2.3,2.3,2.3c1.3,0,2.3-1,2.3-2.3V10.9H9.7z"/>
	</g>
	<g>
		<path class="st9" d="M15.3,9.9v11.6c0,1.8,1.5,3.3,3.3,3.3c1.8,0,3.3-1.5,3.3-3.3V9.9H15.3z"/>
		<path class="st1" d="M18.7,25.8c-2.4,0-4.3-1.9-4.3-4.3V9.9c0-0.6,0.4-1,1-1H22c0.6,0,1,0.4,1,1v11.6C23,23.9,21,25.8,18.7,25.8z
			 M16.3,10.9v10.6c0,1.3,1,2.3,2.3,2.3c1.3,0,2.3-1,2.3-2.3V10.9H16.3z"/>
	</g>
	<g>
		<path class="st11" d="M22,9.9v11.6c0,1.8,1.5,3.3,3.3,3.3c1.8,0,3.3-1.5,3.3-3.3V9.9H22z"/>
		<path class="st1" d="M25.3,25.8c-2.4,0-4.3-1.9-4.3-4.3V9.9c0-0.6,0.4-1,1-1h6.6c0.6,0,1,0.4,1,1v11.6
			C29.6,23.9,27.7,25.8,25.3,25.8z M23,10.9v10.6c0,1.3,1,2.3,2.3,2.3c1.3,0,2.3-1,2.3-2.3V10.9H23z"/>
	</g>
	<g>
		<path class="st9" d="M28.7,9.9v11.6c0,1.8,1.5,3.3,3.3,3.3c1.8,0,3.3-1.5,3.3-3.3V9.9H28.7z"/>
		<path class="st1" d="M32,25.8c-2.4,0-4.3-1.9-4.3-4.3V9.9c0-0.6,0.4-1,1-1h6.6c0.6,0,1,0.4,1,1v11.6C36.3,23.9,34.4,25.8,32,25.8z
			 M29.7,10.9v10.6c0,1.3,1,2.3,2.3,2.3c1.3,0,2.3-1,2.3-2.3V10.9H29.7z"/>
	</g>
	<g>
		<path class="st11" d="M35.4,9.9v11.6c0,1.8,1.5,3.3,3.3,3.3c1.8,0,3.3-1.5,3.3-3.3V9.9H35.4z"/>
		<path class="st1" d="M38.7,25.8c-2.4,0-4.3-1.9-4.3-4.3V9.9c0-0.6,0.4-1,1-1H42c0.6,0,1,0.4,1,1v11.6C43,23.9,41,25.8,38.7,25.8z
			 M36.4,10.9v10.6c0,1.3,1,2.3,2.3,2.3c1.3,0,2.3-1,2.3-2.3V10.9H36.4z"/>
	</g>
	<g>
		<path class="st9" d="M42,9.9v11.6c0,1.8,1.5,3.3,3.3,3.3c1.8,0,3.3-1.5,3.3-3.3V9.9H42z"/>
		<path class="st1" d="M45.3,25.8c-2.4,0-4.3-1.9-4.3-4.3V9.9c0-0.6,0.4-1,1-1h6.6c0.6,0,1,0.4,1,1v11.6
			C49.7,23.9,47.7,25.8,45.3,25.8z M43,10.9v10.6c0,1.3,1,2.3,2.3,2.3c1.3,0,2.3-1,2.3-2.3V10.9H43z"/>
	</g>
	<g>
		<path class="st11" d="M48.7,9.9v11.6c0,1.8,1.5,3.3,3.3,3.3c1.8,0,3.3-1.5,3.3-3.3V9.9H48.7z"/>
		<path class="st1" d="M52,25.8c-2.4,0-4.3-1.9-4.3-4.3V9.9c0-0.6,0.4-1,1-1h6.6c0.6,0,1,0.4,1,1v11.6C56.3,23.9,54.4,25.8,52,25.8z
			 M49.7,10.9v10.6c0,1.3,1,2.3,2.3,2.3c1.3,0,2.3-1,2.3-2.3V10.9H49.7z"/>
	</g>
	<g>
		<path class="st9" d="M55.4,9.9v11.6c0,1.8,1.5,3.3,3.3,3.3c1.8,0,3.3-1.5,3.3-3.3V9.9H55.4z"/>
		<path class="st1" d="M58.7,25.8c-2.4,0-4.3-1.9-4.3-4.3V9.9c0-0.6,0.4-1,1-1H62c0.6,0,1,0.4,1,1v11.6C63,23.9,61.1,25.8,58.7,25.8
			z M56.4,10.9v10.6c0,1.3,1,2.3,2.3,2.3c1.3,0,2.3-1,2.3-2.3V10.9H56.4z"/>
	</g>
	<g>
		<g>
			<g>
				<path class="st1" d="M23.3,40.1H5.6c-0.6,0-1-0.4-1-1s0.4-1,1-1h17.7c0.6,0,1,0.4,1,1S23.8,40.1,23.3,40.1z"/>
			</g>
			<g>
				<path class="st1" d="M23.3,41.4H5.6c-0.6,0-1-0.4-1-1s0.4-1,1-1h17.7c0.6,0,1,0.4,1,1S23.8,41.4,23.3,41.4z"/>
			</g>
		</g>
		<g>
			<g>
				<path class="st1" d="M58.4,40.1H40.7c-0.6,0-1-0.4-1-1s0.4-1,1-1h17.7c0.6,0,1,0.4,1,1S58.9,40.1,58.4,40.1z"/>
			</g>
			<g>
				<path class="st1" d="M58.4,41.4H40.7c-0.6,0-1-0.4-1-1s0.4-1,1-1h17.7c0.6,0,1,0.4,1,1S58.9,41.4,58.4,41.4z"/>
			</g>
		</g>
	</g>
	<g>
		<g>
			<path class="st6" d="M37.1,54.1V35.5c0-2.8-2.3-5.1-5.1-5.1c-2.8,0-5.1,2.3-5.1,5.1v18.6H37.1z"/>
			<path class="st1" d="M37.1,55.1H26.9c-0.6,0-1-0.4-1-1V35.5c0-3.4,2.7-6.1,6.1-6.1c3.4,0,6.1,2.7,6.1,6.1v18.6
				C38.1,54.7,37.6,55.1,37.1,55.1z M27.9,53.1h8.2V35.5c0-2.3-1.8-4.1-4.1-4.1c-2.3,0-4.1,1.8-4.1,4.1V53.1z"/>
		</g>
		<g>
			<path class="st1" d="M35.2,46.2c-0.6,0-1-0.4-1-1v-1.6c0-0.6,0.4-1,1-1s1,0.4,1,1v1.6C36.2,45.8,35.7,46.2,35.2,46.2z"/>
		</g>
	</g>
</g>
</svg>
